<svg id="svg" version="1.1" xmlns="http://www.w3.org/2000/svg" xmlns:xlink="http://www.w3.org/1999/xlink" width="400" height="478.2039289055192" viewBox="0, 0, 400,478.2039289055192"><g id="svgg"><path id="path0" d="M211.506 5.892 C 214.336 5.956,218.966 5.956,221.796 5.892 C 224.626 5.829,222.311 5.777,216.651 5.777 C 210.992 5.777,208.676 5.829,211.506 5.892 M198.129 6.250 C 194.939 6.544,188.436 7.511,188.236 7.721 C 188.121 7.843,188.700 7.844,189.523 7.722 C 193.723 7.101,197.389 6.676,200.935 6.399 C 204.110 6.150,204.362 6.093,202.245 6.102 C 200.804 6.108,198.952 6.175,198.129 6.250 M233.302 6.379 C 235.360 6.527,238.138 6.641,239.476 6.633 C 241.845 6.620,241.826 6.612,238.728 6.340 C 236.978 6.187,234.200 6.072,232.554 6.086 L 229.560 6.110 233.302 6.379 M203.742 6.610 C 180.005 8.061,163.753 13.854,151.556 25.211 L 147.989 28.533 151.552 25.024 C 156.723 19.933,163.802 15.372,170.354 12.911 C 171.337 12.542,172.057 12.157,171.956 12.056 C 171.448 11.547,162.997 15.788,158.466 18.825 C 154.138 21.726,142.674 33.134,146.024 31.206 C 146.296 31.050,146.361 31.080,146.180 31.278 C 146.009 31.465,145.756 31.621,145.619 31.624 C 145.150 31.635,144.434 32.223,144.434 32.598 C 144.434 32.804,144.645 32.851,144.902 32.703 C 145.174 32.547,145.239 32.577,145.058 32.774 C 144.886 32.962,144.563 33.115,144.341 33.115 C 144.118 33.115,143.857 33.349,143.762 33.635 C 143.643 33.990,143.752 34.060,144.105 33.856 C 144.410 33.679,144.493 33.696,144.309 33.897 C 144.138 34.084,143.815 34.238,143.592 34.238 C 143.369 34.238,143.109 34.472,143.014 34.757 C 142.895 35.113,143.003 35.183,143.357 34.978 C 143.661 34.801,143.745 34.818,143.561 35.020 C 143.389 35.207,143.067 35.360,142.844 35.360 C 142.621 35.360,142.360 35.594,142.265 35.880 C 142.150 36.226,142.252 36.301,142.572 36.103 C 142.890 35.907,142.961 35.954,142.782 36.244 C 142.633 36.485,142.361 36.589,142.178 36.476 C 141.995 36.363,141.334 37.160,140.711 38.247 C 139.481 40.391,139.310 40.979,140.037 40.561 C 140.309 40.404,140.374 40.434,140.193 40.632 C 140.022 40.820,139.685 40.976,139.445 40.979 C 139.205 40.983,139.021 41.353,139.036 41.803 C 139.051 42.252,138.934 42.539,138.774 42.441 C 138.348 42.177,137.606 43.746,137.853 44.389 C 137.969 44.692,137.903 44.841,137.706 44.719 C 137.509 44.597,137.090 45.114,136.775 45.868 C 136.102 47.479,136.079 47.641,136.572 47.337 C 136.782 47.207,136.848 47.353,136.724 47.677 C 136.603 47.990,136.343 48.209,136.146 48.164 C 135.820 48.090,134.373 51.157,133.754 53.235 C 133.509 54.059,133.513 54.060,134.111 53.321 C 134.686 52.611,134.694 52.631,134.266 53.695 C 133.728 55.034,133.056 55.906,133.402 54.818 C 133.582 54.248,133.554 54.204,133.283 54.630 C 132.619 55.678,130.204 63.241,128.325 70.159 C 127.520 73.122,127.421 74.294,128.168 72.030 C 128.439 71.207,128.661 70.870,128.661 71.282 C 128.661 72.424,127.689 75.172,127.602 74.275 C 127.513 73.363,126.839 75.712,125.353 82.113 C 124.140 87.339,123.858 89.794,124.964 85.500 C 125.335 84.060,125.650 83.134,125.664 83.442 C 125.678 83.751,125.276 85.688,124.772 87.746 C 124.267 89.804,123.946 90.736,124.058 89.818 C 124.313 87.737,123.968 87.990,123.525 90.208 C 123.344 91.118,122.827 93.595,122.376 95.713 C 121.926 97.831,121.621 99.755,121.699 99.988 C 121.776 100.221,122.058 99.193,122.324 97.703 C 122.590 96.213,122.887 95.073,122.983 95.169 C 123.080 95.265,122.865 96.822,122.506 98.629 C 122.083 100.760,121.767 101.667,121.607 101.211 C 121.387 100.584,121.334 100.607,121.116 101.423 C 120.769 102.718,120.803 104.102,121.175 103.872 C 121.347 103.766,121.201 105.061,120.849 106.750 C 120.497 108.440,119.657 112.730,118.983 116.284 C 118.308 119.837,117.686 122.675,117.601 122.590 C 117.516 122.505,117.636 121.390,117.867 120.112 C 118.099 118.835,118.219 117.720,118.133 117.634 C 117.978 117.479,116.208 126.458,115.837 129.280 L 115.641 130.776 116.006 129.373 C 116.206 128.601,116.535 127.339,116.735 126.567 L 117.100 125.164 116.936 126.473 C 116.426 130.559,115.872 132.983,115.612 132.273 C 115.391 131.671,115.287 131.818,115.079 133.022 C 114.824 134.494,114.642 135.483,113.596 141.066 C 112.321 147.867,112.129 149.364,112.496 149.610 C 112.704 149.750,112.749 150.271,112.598 150.795 L 112.329 151.731 112.292 150.826 C 112.271 150.329,112.185 149.992,112.101 150.078 C 111.822 150.360,110.304 159.821,110.505 160.022 C 110.613 160.130,110.814 159.403,110.952 158.407 C 111.335 155.641,111.888 153.892,111.631 156.258 C 111.291 159.397,110.475 162.787,110.379 161.459 C 110.303 160.419,110.275 160.447,109.988 161.833 C 109.596 163.729,109.613 165.260,110.009 163.704 L 110.295 162.582 110.295 163.704 C 110.295 165.391,109.753 167.409,109.642 166.137 L 109.561 165.201 109.261 166.137 C 109.096 166.651,108.967 167.661,108.973 168.382 L 108.985 169.691 109.261 168.382 C 109.413 167.661,109.559 167.325,109.587 167.633 C 109.663 168.492,107.631 180.516,107.484 180.075 C 107.413 179.863,107.708 177.546,108.139 174.926 C 108.570 172.307,108.831 170.072,108.718 169.959 C 108.605 169.846,108.513 169.918,108.513 170.119 C 108.513 170.320,108.007 173.495,107.390 177.175 C 106.292 183.719,105.898 187.794,106.829 182.975 C 107.087 181.637,107.310 180.964,107.324 181.478 C 107.338 181.993,107.025 184.181,106.629 186.342 C 106.004 189.760,105.931 189.955,106.074 187.839 C 106.165 186.501,106.167 185.575,106.079 185.781 C 105.834 186.356,104.083 197.490,103.873 199.813 C 103.770 200.945,103.951 200.306,104.274 198.393 C 105.301 192.317,105.250 194.992,104.207 201.934 C 103.219 208.512,102.936 209.791,102.863 208.014 L 102.825 207.109 102.526 208.045 C 102.361 208.559,102.233 209.654,102.242 210.477 L 102.258 211.974 102.526 210.477 C 102.697 209.523,102.809 209.319,102.835 209.916 C 102.914 211.721,101.142 221.771,100.988 220.393 C 100.893 219.539,100.600 220.798,100.146 224.011 C 99.763 226.721,99.518 229.142,99.601 229.391 C 99.684 229.640,99.984 228.015,100.268 225.780 C 100.552 223.545,100.856 221.930,100.943 222.192 C 101.098 222.659,99.632 233.693,99.317 234.425 C 99.228 234.630,99.254 233.705,99.373 232.369 C 99.492 231.033,99.508 230.022,99.408 230.124 C 99.126 230.409,97.592 241.703,97.766 242.209 C 97.851 242.455,98.140 240.889,98.410 238.728 C 98.679 236.567,98.966 234.992,99.047 235.228 C 99.128 235.464,98.928 237.653,98.603 240.092 C 98.278 242.532,97.831 245.875,97.611 247.521 C 96.873 253.046,96.636 254.341,96.586 253.109 C 96.560 252.478,96.695 251.047,96.886 249.928 C 97.077 248.810,97.320 246.885,97.427 245.650 C 97.689 242.595,97.151 245.118,96.548 249.766 C 96.308 251.618,95.965 254.144,95.787 255.379 C 95.309 258.681,94.983 263.373,95.385 261.179 C 95.554 260.253,95.813 258.345,95.961 256.940 C 96.109 255.534,96.318 254.472,96.425 254.579 C 96.531 254.685,96.261 257.687,95.824 261.250 C 94.010 276.023,93.860 276.975,94.092 272.217 C 94.201 269.983,94.159 269.603,93.929 270.720 C 93.442 273.085,92.314 283.645,92.526 283.857 C 92.631 283.963,92.894 282.650,93.110 280.939 C 93.490 277.931,93.497 277.915,93.327 280.449 C 93.009 285.204,90.563 304.843,90.718 301.403 C 90.900 297.368,90.486 299.253,89.856 305.332 C 89.325 310.463,89.041 315.514,89.415 313.190 C 89.899 310.181,89.808 313.234,89.242 318.990 C 88.939 322.077,88.503 326.623,88.274 329.093 C 87.836 333.805,87.590 334.883,87.512 332.429 C 87.440 330.184,86.966 333.730,86.705 338.463 C 86.558 341.132,86.586 341.605,86.805 340.131 C 86.973 338.999,87.156 337.147,87.213 336.015 C 87.299 334.272,87.334 334.186,87.436 335.454 C 87.503 336.277,87.324 339.224,87.040 342.002 C 86.615 346.150,86.504 346.652,86.422 344.808 L 86.322 342.563 86.048 344.995 C 85.898 346.333,85.784 348.354,85.794 349.486 L 85.813 351.543 86.062 349.298 L 86.310 347.053 86.342 349.111 C 86.360 350.243,86.145 353.442,85.865 356.221 L 85.356 361.272 85.482 356.969 C 85.576 353.774,85.531 353.196,85.311 354.724 C 85.147 355.856,84.997 357.666,84.976 358.746 C 84.956 359.827,84.856 360.711,84.754 360.711 C 84.652 360.711,83.546 360.357,82.297 359.925 C 81.048 359.493,79.954 359.210,79.867 359.297 C 79.781 359.384,80.844 359.827,82.231 360.282 C 83.618 360.738,85.005 361.289,85.313 361.507 C 85.762 361.824,85.724 361.852,85.126 361.644 C 56.086 351.563,34.075 354.866,15.782 372.049 C 12.553 375.082,12.445 375.156,14.780 372.728 C 17.758 369.633,22.328 366.068,26.384 363.677 C 27.905 362.780,29.093 361.990,29.024 361.921 C 28.831 361.728,23.553 364.918,21.092 366.717 C 17.635 369.242,9.527 377.377,11.974 375.865 C 12.583 375.489,12.400 375.918,11.715 376.474 C 11.169 376.917,11.127 376.911,11.413 376.427 C 11.698 375.942,11.656 375.936,11.110 376.379 C 10.437 376.925,10.219 377.753,10.851 377.362 C 11.460 376.986,11.278 377.415,10.592 377.971 C 10.046 378.414,10.005 378.407,10.290 377.923 C 10.575 377.439,10.534 377.433,9.988 377.876 C 9.280 378.450,9.112 379.240,9.787 378.823 C 10.056 378.656,10.117 378.721,9.948 378.994 C 9.799 379.235,9.527 379.340,9.345 379.227 C 8.918 378.963,7.752 381.191,8.057 381.685 C 8.184 381.890,8.065 382.012,7.792 381.955 C 7.495 381.893,7.307 382.180,7.324 382.672 C 7.339 383.123,7.183 383.460,6.978 383.420 C 6.516 383.332,4.495 388.986,4.528 390.271 C 4.542 390.786,4.796 390.200,5.093 388.970 C 5.391 387.739,5.789 386.578,5.978 386.389 C 6.166 386.200,6.080 386.847,5.785 387.826 C 4.222 393.021,4.363 399.459,6.165 405.134 C 6.659 406.689,6.886 407.784,6.669 407.567 C 6.453 407.351,5.882 405.686,5.401 403.868 C 4.920 402.049,4.518 401.003,4.508 401.543 C 4.463 404.020,8.562 413.773,9.424 413.240 C 9.678 413.084,9.740 413.149,9.582 413.405 C 9.257 413.932,10.019 415.438,10.470 415.159 C 10.651 415.047,10.921 415.152,11.070 415.393 C 11.249 415.683,11.178 415.730,10.861 415.534 C 10.540 415.336,10.438 415.411,10.553 415.757 C 10.649 416.043,10.909 416.277,11.132 416.277 C 11.355 416.277,11.678 416.430,11.849 416.618 C 12.033 416.819,11.949 416.836,11.645 416.659 C 11.292 416.454,11.183 416.524,11.302 416.880 C 11.397 417.166,11.663 417.399,11.893 417.399 C 12.123 417.399,12.529 417.644,12.797 417.943 C 13.217 418.412,13.194 418.418,12.629 417.990 C 12.268 417.718,11.974 417.663,11.974 417.869 C 11.974 418.344,12.914 419.141,13.171 418.884 C 13.277 418.778,13.598 418.990,13.885 419.355 C 14.359 419.958,14.347 419.972,13.751 419.505 C 12.514 418.535,13.097 419.686,14.496 420.974 C 15.766 422.145,15.810 422.160,14.967 421.141 C 14.125 420.122,14.168 420.138,15.439 421.308 C 16.799 422.562,17.404 423.387,16.277 422.451 C 15.367 421.696,15.636 422.620,16.585 423.512 C 17.064 423.961,17.596 424.201,17.768 424.045 C 17.940 423.888,17.966 423.960,17.826 424.204 C 16.368 426.749,44.748 443.715,49.896 443.377 C 50.133 443.361,48.699 442.788,46.710 442.104 C 37.119 438.805,27.224 432.894,19.457 425.825 C 17.594 424.129,19.687 425.717,22.863 428.409 C 43.303 445.735,76.802 451.560,116.558 444.702 C 140.895 440.503,160.641 432.045,173.205 420.438 L 176.801 417.116 173.589 420.300 C 170.851 423.014,168.340 425.067,163.508 428.542 C 162.819 429.037,162.784 429.113,163.371 428.838 C 166.155 427.533,177.736 417.464,177.736 416.348 C 177.736 416.156,177.442 416.224,177.081 416.500 C 176.721 416.777,176.835 416.545,177.334 415.985 C 178.354 414.841,178.817 414.625,178.115 415.622 C 177.861 415.982,178.180 415.690,178.824 414.974 C 179.468 414.257,179.915 413.462,179.817 413.208 C 179.720 412.954,179.827 412.631,180.055 412.489 C 180.325 412.323,180.364 412.405,180.168 412.722 C 179.967 413.047,180.012 413.122,180.300 412.943 C 180.990 412.517,181.909 410.497,181.623 410.034 C 181.467 409.782,181.530 409.717,181.780 409.871 C 182.030 410.026,182.503 409.530,182.960 408.634 C 183.811 406.968,183.899 406.582,183.353 406.920 C 183.141 407.051,183.078 406.901,183.205 406.570 C 183.327 406.252,183.560 406.073,183.723 406.174 C 184.234 406.490,186.381 400.289,186.305 398.716 C 186.273 398.041,186.228 398.061,185.956 398.877 C 185.767 399.442,185.745 398.997,185.899 397.755 C 186.225 395.132,186.232 384.162,185.909 380.730 C 185.749 379.024,185.776 378.502,185.988 379.233 C 186.232 380.072,186.266 379.835,186.123 378.297 C 185.746 374.250,181.754 359.748,181.124 360.137 C 180.950 360.245,180.708 360.072,180.586 359.754 C 180.459 359.423,180.522 359.273,180.734 359.404 C 181.336 359.776,181.182 359.129,179.607 354.678 C 178.784 352.350,178.110 350.398,178.110 350.340 C 178.110 350.282,177.858 350.234,177.549 350.234 C 177.240 350.234,176.990 349.939,176.994 349.579 C 176.998 349.019,177.052 349.006,177.362 349.486 C 178.025 350.512,177.750 349.490,176.375 345.821 C 175.627 343.823,174.287 340.000,173.397 337.325 C 172.507 334.649,171.773 332.783,171.764 333.177 C 171.737 334.502,171.362 333.525,170.833 330.748 C 170.509 329.049,170.437 327.772,170.643 327.420 C 170.827 327.105,170.983 327.011,170.990 327.211 C 170.996 327.412,171.254 327.215,171.562 326.774 C 172.151 325.934,174.271 325.108,177.736 324.368 C 178.868 324.126,179.590 323.857,179.340 323.771 C 178.655 323.534,173.237 325.103,171.774 325.962 C 170.895 326.478,170.639 326.535,170.966 326.142 C 174.002 322.483,207.210 318.880,247.521 317.835 C 260.731 317.492,267.611 318.317,269.387 320.458 C 269.592 320.705,268.798 320.441,267.621 319.869 C 264.047 318.133,256.087 317.690,241.721 318.426 C 238.110 318.612,239.863 318.645,246.960 318.525 C 261.161 318.287,266.208 318.853,268.722 320.969 C 269.386 321.527,269.966 321.899,270.012 321.796 C 270.059 321.693,270.237 321.762,270.408 321.950 C 270.593 322.152,270.504 322.165,270.189 321.982 C 269.788 321.749,269.719 321.833,269.908 322.327 C 270.046 322.686,270.159 323.060,270.159 323.158 C 270.159 323.257,270.316 323.240,270.507 323.122 C 270.699 323.003,270.978 323.104,271.126 323.345 C 271.296 323.618,271.235 323.682,270.965 323.516 C 270.465 323.207,270.438 323.885,270.907 324.977 C 271.126 325.486,271.241 325.546,271.267 325.164 C 271.300 324.665,271.340 324.665,271.624 325.164 C 272.020 325.857,272.919 331.135,272.682 331.372 C 272.587 331.466,272.303 330.263,272.051 328.698 C 271.798 327.132,271.510 325.933,271.411 326.032 C 271.311 326.132,271.419 327.198,271.650 328.401 C 272.844 334.625,273.138 340.532,273.145 358.435 C 273.149 368.399,273.242 376.461,273.352 376.352 C 273.462 376.242,273.588 367.837,273.633 357.674 C 273.681 346.630,273.791 341.905,273.905 345.931 C 274.132 353.962,273.641 381.943,273.188 386.717 C 272.917 389.572,272.884 389.089,272.971 383.536 C 273.071 377.154,273.066 377.107,272.782 381.665 C 272.621 384.238,272.470 387.135,272.447 388.103 C 272.397 390.175,273.008 389.981,264.359 390.675 C 261.272 390.922,258.073 391.262,257.250 391.429 C 255.514 391.782,257.453 391.675,264.172 391.048 C 270.717 390.437,273.565 390.285,271.843 390.639 C 271.020 390.808,267.989 391.141,265.108 391.378 C 237.600 393.647,222.715 398.160,213.021 407.170 C 210.588 409.431,210.445 409.524,212.161 407.727 C 215.090 404.659,217.479 402.908,221.927 400.567 C 226.216 398.310,226.722 397.738,222.599 399.807 C 216.666 402.784,209.215 409.110,208.965 411.381 C 208.901 411.965,208.647 412.631,208.401 412.863 C 208.054 413.189,208.053 413.074,208.398 412.348 L 208.843 411.413 208.078 412.348 C 205.579 415.401,203.182 423.515,203.181 428.927 C 203.180 432.799,205.348 443.233,206.015 442.567 C 206.107 442.475,205.926 441.673,205.613 440.786 C 205.300 439.898,205.111 439.105,205.193 439.023 C 205.275 438.940,205.688 439.897,206.111 441.148 C 206.533 442.399,206.702 443.313,206.487 443.180 C 205.908 442.822,206.348 443.988,207.884 446.881 C 208.620 448.267,209.367 449.313,209.543 449.204 C 209.720 449.095,209.986 449.203,210.135 449.444 C 210.304 449.717,210.243 449.782,209.974 449.615 C 209.736 449.468,209.542 449.494,209.542 449.673 C 209.542 450.250,210.589 451.450,211.102 451.458 C 211.376 451.463,211.555 451.735,211.501 452.063 C 211.447 452.391,211.690 452.893,212.041 453.177 C 212.468 453.524,212.586 453.541,212.398 453.227 C 211.988 452.546,212.359 452.655,212.957 453.393 C 213.306 453.823,213.321 453.936,213.003 453.745 C 212.059 453.178,212.579 454.039,214.305 455.901 C 215.279 456.952,216.247 457.874,216.457 457.950 C 216.667 458.026,215.996 457.190,214.967 456.090 C 213.938 454.991,214.780 455.693,216.838 457.649 C 228.536 468.770,244.714 474.079,268.849 474.718 C 306.785 475.722,341.461 465.212,371.188 443.700 C 373.143 442.285,374.153 441.648,373.433 442.285 C 369.724 445.565,357.780 453.222,350.663 456.884 C 347.156 458.688,345.925 459.457,347.521 458.847 C 354.323 456.245,381.242 438.135,381.284 436.132 C 381.288 435.939,380.744 436.276,380.075 436.880 L 378.859 437.978 380.148 436.575 C 381.405 435.209,381.945 434.791,381.478 435.547 C 380.728 436.761,382.327 435.459,385.507 432.266 C 388.825 428.936,389.915 427.571,388.681 428.293 C 388.424 428.443,388.534 428.201,388.926 427.754 C 389.777 426.784,390.205 426.662,389.482 427.596 C 389.069 428.129,389.130 428.118,389.810 427.538 C 390.697 426.781,390.965 425.965,390.178 426.418 C 389.906 426.574,389.841 426.544,390.022 426.346 C 390.193 426.159,390.516 426.006,390.739 426.006 C 390.962 426.006,391.222 425.772,391.318 425.486 C 391.433 425.139,391.331 425.065,391.010 425.263 C 390.693 425.459,390.622 425.411,390.801 425.122 C 390.950 424.881,391.222 424.777,391.405 424.890 C 391.589 425.004,392.083 424.424,392.502 423.602 C 393.352 421.935,393.440 421.550,392.895 421.887 C 392.684 422.017,392.619 421.870,392.743 421.547 C 392.863 421.234,393.141 421.015,393.361 421.060 C 393.860 421.162,395.366 416.526,395.647 414.027 L 395.856 412.161 395.319 414.219 C 394.740 416.438,394.734 416.542,395.561 410.103 C 396.114 405.801,395.759 380.944,394.964 368.244 C 394.625 362.817,394.407 358.018,394.481 357.580 C 394.555 357.141,394.753 359.139,394.921 362.021 C 395.573 373.184,395.852 376.139,395.663 369.878 C 395.570 366.791,395.330 361.824,395.129 358.840 C 394.927 355.856,394.584 350.720,394.364 347.428 C 393.742 338.079,393.286 333.853,393.516 339.570 C 393.616 342.039,393.852 345.828,394.042 347.989 C 394.231 350.150,394.360 353.012,394.327 354.350 C 394.259 357.128,394.185 356.467,393.636 348.176 C 393.418 344.883,392.908 337.393,392.504 331.532 C 391.774 320.964,391.637 316.631,392.160 320.674 C 392.512 323.389,392.292 318.047,391.737 310.384 C 391.101 301.587,390.685 298.895,390.842 304.584 C 390.968 309.150,390.964 309.181,390.655 305.893 C 389.797 296.765,388.958 283.535,389.504 287.746 C 390.029 291.792,389.926 287.146,389.341 280.454 C 387.750 262.230,387.314 258.430,387.493 264.359 L 387.617 268.475 387.104 263.611 C 386.822 260.935,386.605 257.989,386.621 257.063 C 386.651 255.384,386.652 255.385,386.904 257.437 L 387.156 259.495 387.173 257.624 C 387.183 256.595,387.067 254.659,386.917 253.321 L 386.644 250.889 386.587 253.103 C 386.503 256.332,386.273 255.545,386.048 251.263 C 385.930 249.013,385.968 248.118,386.144 249.018 C 386.503 250.863,386.296 246.541,385.784 241.534 C 385.595 239.682,385.314 236.904,385.160 235.360 C 384.908 232.847,384.856 232.710,384.661 234.051 C 384.471 235.357,384.407 235.167,384.153 232.554 C 383.992 230.907,383.620 227.203,383.325 224.322 C 382.673 217.947,382.705 215.407,383.373 220.580 L 383.855 224.322 383.682 221.141 C 383.587 219.392,383.356 216.698,383.170 215.154 C 382.984 213.611,382.643 210.580,382.413 208.419 C 381.688 201.609,381.335 199.797,381.503 203.742 C 381.604 206.101,381.371 204.812,380.725 199.439 C 380.219 195.220,379.863 191.431,379.935 191.020 C 380.008 190.608,380.103 190.945,380.147 191.768 C 380.191 192.591,380.317 193.039,380.427 192.764 C 380.628 192.261,379.622 182.761,379.035 179.607 C 378.793 178.307,378.757 178.647,378.877 181.104 C 378.972 183.056,378.537 180.600,377.750 174.743 C 377.045 169.495,376.476 164.864,376.486 164.453 C 376.516 163.170,377.078 166.057,377.385 169.066 C 377.546 170.645,377.750 171.616,377.839 171.225 C 377.985 170.582,377.336 165.044,376.433 159.214 C 376.241 157.979,375.971 156.127,375.832 155.098 C 375.694 154.069,375.511 153.416,375.427 153.647 C 375.343 153.878,375.533 155.802,375.850 157.923 C 376.167 160.043,376.411 162.212,376.391 162.741 C 376.372 163.271,375.959 161.094,375.473 157.905 C 374.626 152.330,374.304 148.572,374.930 151.543 C 375.200 152.826,375.206 152.830,375.233 151.731 C 375.248 151.113,375.122 149.935,374.951 149.111 L 374.642 147.615 374.556 148.924 L 374.470 150.234 374.160 148.737 C 373.743 146.721,373.761 144.840,374.181 146.492 C 374.679 148.446,374.577 146.660,373.969 142.767 C 373.145 137.491,372.674 135.694,372.884 138.634 C 372.972 139.869,372.462 137.680,371.751 133.770 C 371.039 129.860,370.514 126.492,370.583 126.286 C 370.653 126.080,370.926 127.221,371.189 128.821 C 371.452 130.422,371.751 131.647,371.853 131.545 C 372.065 131.334,370.901 124.520,370.411 123.106 C 370.175 122.426,370.133 122.682,370.255 124.041 C 370.367 125.278,370.139 124.643,369.582 122.170 C 369.107 120.059,368.887 118.325,369.076 118.190 C 369.429 117.939,369.011 115.787,366.793 106.461 C 365.998 103.117,365.365 101.123,365.225 101.521 C 365.052 102.015,364.887 101.799,364.590 100.685 C 364.370 99.859,364.333 99.271,364.508 99.379 C 364.683 99.488,364.827 99.847,364.827 100.178 C 364.827 100.509,364.930 100.677,365.056 100.551 C 365.270 100.337,364.202 96.392,361.957 89.108 C 361.400 87.301,360.876 86.168,360.717 86.426 C 360.520 86.745,360.373 86.695,360.202 86.250 C 359.835 85.294,359.924 84.675,360.337 85.313 C 361.004 86.346,360.721 85.191,359.541 82.065 C 358.898 80.361,358.242 79.046,358.084 79.144 C 357.925 79.242,357.696 79.062,357.574 78.744 C 357.447 78.412,357.510 78.263,357.722 78.394 C 358.310 78.757,358.163 78.238,356.612 74.462 C 355.808 72.507,354.988 70.944,354.789 70.988 C 354.590 71.033,354.491 70.780,354.570 70.427 C 354.760 69.575,350.426 61.150,349.866 61.281 C 349.626 61.338,349.534 61.215,349.662 61.009 C 349.949 60.544,349.183 59.032,348.784 59.279 C 348.625 59.377,348.507 59.090,348.522 58.641 C 348.538 58.191,348.354 57.821,348.114 57.817 C 347.873 57.814,347.537 57.658,347.365 57.470 C 347.181 57.269,347.265 57.252,347.570 57.429 C 347.923 57.634,348.031 57.564,347.913 57.208 C 347.817 56.922,347.557 56.688,347.334 56.688 C 347.111 56.688,346.788 56.535,346.617 56.348 C 346.436 56.150,346.501 56.120,346.773 56.276 C 347.344 56.605,347.367 56.314,346.847 55.344 C 346.631 54.940,346.306 54.701,346.125 54.813 C 345.944 54.925,345.674 54.820,345.525 54.579 C 345.346 54.289,345.417 54.241,345.734 54.438 C 346.055 54.636,346.157 54.561,346.042 54.215 C 345.946 53.929,345.686 53.695,345.463 53.695 C 345.240 53.695,344.917 53.542,344.746 53.354 C 344.562 53.153,344.646 53.136,344.950 53.313 C 345.303 53.518,345.412 53.448,345.293 53.092 C 345.198 52.806,344.938 52.572,344.715 52.572 C 344.492 52.572,344.169 52.419,343.998 52.232 C 343.816 52.034,343.882 52.004,344.153 52.160 C 344.411 52.308,344.621 52.272,344.621 52.079 C 344.621 51.671,343.827 50.953,343.374 50.952 C 343.202 50.951,342.950 50.826,342.813 50.673 C 342.675 50.520,342.795 50.529,343.079 50.694 C 343.435 50.900,343.537 50.831,343.407 50.473 C 343.303 50.187,343.045 49.990,342.833 50.035 C 342.621 50.080,342.221 49.827,341.944 49.474 C 341.490 48.894,341.505 48.881,342.095 49.344 C 342.456 49.627,342.750 49.689,342.750 49.484 C 342.750 49.009,341.810 48.212,341.553 48.469 C 341.447 48.575,341.126 48.363,340.839 47.998 C 340.356 47.382,340.370 47.375,341.034 47.895 C 341.427 48.204,341.680 48.277,341.595 48.057 C 341.319 47.342,337.335 42.708,336.974 42.682 C 336.781 42.668,337.118 43.204,337.722 43.873 L 338.820 45.089 337.417 43.799 C 336.051 42.543,335.633 42.002,336.389 42.470 C 339.215 44.216,331.575 36.788,326.473 32.829 C 321.068 28.634,309.190 21.331,307.769 21.329 C 307.566 21.329,309.614 22.549,312.320 24.041 C 315.025 25.533,317.633 27.061,318.114 27.437 L 318.990 28.121 318.054 27.588 C 308.407 22.090,303.493 19.857,294.107 16.705 C 277.801 11.231,259.159 8.202,232.741 6.735 C 226.812 6.406,208.380 6.327,203.742 6.610 M245.276 7.123 C 254.388 8.160,259.400 8.638,259.554 8.484 C 259.650 8.389,258.665 8.201,257.366 8.066 C 256.067 7.931,253.826 7.668,252.385 7.481 C 250.945 7.294,248.082 7.060,246.024 6.961 L 242.283 6.782 245.276 7.123 M185.033 8.242 C 184.533 8.463,184.844 8.499,185.968 8.350 C 186.894 8.228,187.722 8.067,187.808 7.993 C 188.133 7.711,185.747 7.925,185.033 8.242 M180.355 9.217 C 177.219 10.045,172.431 11.658,172.603 11.829 C 172.687 11.913,173.497 11.712,174.404 11.383 C 175.310 11.053,177.905 10.302,180.168 9.712 C 182.432 9.123,183.863 8.648,183.349 8.657 C 182.834 8.667,181.487 8.919,180.355 9.217 M260.087 8.747 C 260.173 8.825,261.422 8.983,262.862 9.098 C 264.875 9.259,265.135 9.232,263.985 8.979 C 262.472 8.646,259.800 8.487,260.087 8.747 M265.856 9.552 C 266.062 9.629,267.746 9.947,269.598 10.258 C 271.450 10.570,273.555 10.940,274.275 11.079 C 274.995 11.219,275.485 11.224,275.364 11.090 C 275.097 10.795,267.335 9.342,266.251 9.384 C 265.828 9.400,265.650 9.476,265.856 9.552 M276.707 11.600 C 278.290 12.002,279.649 12.002,278.391 11.600 C 277.877 11.435,277.035 11.303,276.520 11.307 C 275.680 11.313,275.699 11.343,276.707 11.600 M279.701 12.173 C 279.906 12.250,282.095 12.840,284.565 13.484 C 287.035 14.127,290.816 15.223,292.967 15.919 C 295.119 16.614,296.940 17.123,297.013 17.050 C 297.366 16.697,281.240 11.937,279.918 12.003 C 279.592 12.020,279.495 12.096,279.701 12.173 M298.036 17.589 C 301.782 19.221,306.998 21.284,307.106 21.176 C 307.291 20.990,298.282 17.206,297.731 17.238 C 297.487 17.252,297.624 17.410,298.036 17.589 M239.289 20.017 C 316.108 25.701,341.847 48.664,356.936 124.977 C 365.259 167.071,374.471 253.200,380.729 347.428 C 381.341 356.650,381.657 361.712,381.849 365.388 C 381.967 367.652,382.136 370.346,382.225 371.375 C 383.812 389.892,383.279 410.718,381.075 416.277 C 378.129 423.705,356.480 439.947,338.668 448.093 C 303.149 464.335,254.325 466.789,232.118 453.448 C 217.216 444.496,212.173 425.879,222.053 416.296 C 229.418 409.153,242.614 405.991,275.905 403.391 C 281.021 402.991,285.274 402.596,285.357 402.513 C 285.649 402.221,286.620 376.473,286.856 362.769 C 287.621 318.415,282.990 307.405,262.675 305.274 C 257.845 304.767,238.218 305.084,224.135 305.896 C 155.773 309.838,150.385 313.826,163.717 350.616 C 176.121 384.848,176.752 396.378,166.882 408.439 C 149.855 429.248,93.051 440.824,55.919 431.052 C 31.386 424.596,13.350 405.123,18.470 390.619 C 22.620 378.866,40.033 368.569,55.753 368.574 C 64.484 368.577,72.450 370.547,89.194 376.844 C 93.508 378.467,97.159 379.794,97.307 379.794 C 97.455 379.794,97.684 377.226,97.815 374.088 C 99.422 335.623,107.702 262.489,117.526 200.000 C 130.102 120.006,139.943 73.122,148.328 53.257 C 160.435 24.573,184.081 15.932,239.289 20.017 M325.235 32.248 C 326.818 33.445,328.224 34.604,328.359 34.823 C 328.586 35.190,322.456 30.643,321.609 29.816 C 320.822 29.047,322.433 30.128,325.235 32.248 M335.267 41.059 C 335.267 41.302,329.337 35.945,329.013 35.409 C 328.873 35.176,330.222 36.312,332.012 37.932 C 333.802 39.552,335.267 40.959,335.267 41.059 M131.913 60.524 C 131.773 61.090,131.510 61.705,131.329 61.891 C 131.147 62.077,131.187 61.614,131.418 60.862 C 131.906 59.270,132.287 59.011,131.913 60.524 M356.568 75.398 C 356.568 75.603,356.328 75.351,356.034 74.836 C 355.740 74.322,355.499 73.732,355.499 73.527 C 355.499 73.321,355.740 73.573,356.034 74.088 C 356.328 74.602,356.568 75.192,356.568 75.398 M217.025 75.976 C 190.434 77.142,180.167 80.684,173.822 90.880 C 169.469 97.874,168.475 111.017,171.564 120.737 C 171.667 121.063,172.159 121.038,173.487 120.638 C 174.469 120.343,175.435 120.156,175.634 120.222 C 175.833 120.289,175.048 120.641,173.890 121.005 L 171.783 121.668 172.529 123.559 C 176.686 134.107,190.377 143.894,206.724 148.004 C 240.634 156.530,296.914 145.166,308.368 127.480 C 317.103 113.993,308.602 91.520,291.644 83.269 C 279.850 77.531,249.414 74.557,217.025 75.976 M127.060 78.085 C 126.834 79.076,126.612 79.512,126.550 79.090 C 126.448 78.402,127.035 76.333,127.331 76.333 C 127.401 76.333,127.279 77.121,127.060 78.085 M126.239 81.525 C 126.108 82.182,125.922 82.642,125.827 82.547 C 125.732 82.451,125.770 81.844,125.912 81.197 C 126.249 79.663,126.551 79.965,126.239 81.525 M361.797 89.772 C 362.229 91.092,362.568 92.355,362.552 92.578 C 362.520 93.012,360.741 87.979,360.722 87.403 C 360.699 86.701,361.034 87.438,361.797 89.772 M257.437 89.220 C 285.571 91.632,293.616 95.498,298.062 108.742 C 301.656 119.450,297.167 124.787,279.701 130.571 C 234.649 145.489,188.363 137.938,183.324 114.849 C 182.439 110.795,182.333 104.418,183.103 101.574 C 185.644 92.197,191.709 90.009,219.270 88.532 C 225.386 88.204,250.963 88.665,257.437 89.220 M123.523 93.395 C 123.335 94.198,123.166 94.518,123.148 94.107 C 123.110 93.217,123.513 91.583,123.720 91.790 C 123.800 91.870,123.712 92.593,123.523 93.395 M363.350 94.907 C 363.556 95.450,363.656 95.964,363.571 96.049 C 363.486 96.133,363.238 95.689,363.019 95.061 C 362.532 93.665,362.826 93.529,363.350 94.907 M364.098 97.526 C 364.305 98.069,364.404 98.583,364.319 98.668 C 364.235 98.753,363.986 98.308,363.767 97.680 C 363.281 96.285,363.574 96.148,364.098 97.526 M366.090 105.145 C 366.253 106.044,366.225 106.220,366.000 105.706 C 365.820 105.295,365.566 104.369,365.435 103.648 C 365.272 102.749,365.300 102.573,365.525 103.087 C 365.705 103.499,365.959 104.425,366.090 105.145 M120.486 104.482 C 120.486 104.598,120.135 106.492,119.705 108.691 C 119.276 110.889,118.998 112.762,119.089 112.852 C 119.179 112.943,119.615 111.133,120.057 108.831 C 120.499 106.530,120.777 104.562,120.674 104.459 C 120.571 104.356,120.486 104.367,120.486 104.482 M367.050 108.945 C 367.628 111.643,367.295 111.620,366.634 108.916 C 366.334 107.688,366.212 106.760,366.363 106.853 C 366.514 106.946,366.823 107.888,367.050 108.945 M118.428 115.248 C 118.285 116.099,118.246 116.874,118.341 116.969 C 118.437 117.065,118.628 116.442,118.765 115.585 C 118.902 114.727,118.941 113.952,118.852 113.863 C 118.763 113.774,118.572 114.397,118.428 115.248 M369.399 119.177 C 369.403 119.588,369.534 120.430,369.691 121.048 C 369.948 122.056,369.978 122.075,369.984 121.235 C 369.988 120.720,369.856 119.878,369.691 119.364 C 369.457 118.631,369.393 118.590,369.399 119.177 M372.002 132.647 C 371.990 133.059,372.119 134.069,372.289 134.892 C 372.549 136.151,372.598 136.210,372.597 135.267 C 372.596 133.956,372.037 131.497,372.002 132.647 M115.227 136.368 C 114.953 137.912,114.654 139.100,114.562 139.009 C 114.471 138.917,114.620 137.579,114.895 136.036 C 115.169 134.492,115.468 133.304,115.559 133.395 C 115.651 133.487,115.501 134.825,115.227 136.368 M114.165 141.815 C 113.982 142.741,113.815 143.141,113.792 142.703 C 113.739 141.681,114.216 139.278,114.375 139.763 C 114.441 139.965,114.347 140.889,114.165 141.815 M373.720 144.247 C 373.721 145.191,373.672 145.131,373.412 143.873 C 373.020 141.977,373.037 140.446,373.433 142.002 C 373.590 142.619,373.719 143.630,373.720 144.247 M112.138 153.695 C 112.044 154.055,111.967 153.761,111.967 153.040 C 111.967 152.320,112.044 152.025,112.138 152.385 C 112.232 152.746,112.232 153.335,112.138 153.695 M378.003 173.059 C 377.995 173.676,378.120 175.023,378.280 176.052 C 378.519 177.582,378.576 177.685,378.594 176.614 C 378.606 175.893,378.481 174.546,378.317 173.620 C 378.099 172.396,378.013 172.243,378.003 173.059 M379.773 188.743 C 379.807 191.104,379.535 190.134,379.309 187.091 C 379.154 185.010,379.184 184.672,379.426 185.781 C 379.605 186.604,379.761 187.937,379.773 188.743 M105.403 194.107 C 105.309 194.467,105.232 194.172,105.232 193.452 C 105.232 192.732,105.309 192.437,105.403 192.797 C 105.497 193.157,105.497 193.746,105.403 194.107 M380.625 194.574 C 380.616 195.295,380.739 196.726,380.900 197.755 C 381.135 199.268,381.194 199.376,381.208 198.316 C 381.218 197.596,381.094 196.165,380.934 195.136 C 380.698 193.622,380.639 193.515,380.625 194.574 M103.151 203.514 C 103.013 204.205,102.920 205.297,102.944 205.940 C 102.974 206.747,103.092 206.478,103.325 205.073 C 103.698 202.826,103.551 201.513,103.151 203.514 M382.386 212.130 C 382.431 214.840,382.151 213.706,381.930 210.290 C 381.781 207.979,381.812 207.570,382.042 208.793 C 382.216 209.719,382.370 211.221,382.386 212.130 M101.403 215.341 C 101.152 217.114,101.023 218.641,101.117 218.735 C 101.211 218.829,101.492 217.454,101.740 215.678 C 101.988 213.903,102.117 212.376,102.026 212.285 C 101.935 212.194,101.655 213.569,101.403 215.341 M382.678 215.992 C 382.589 216.457,382.512 216.165,382.508 215.341 C 382.504 214.518,382.577 214.137,382.671 214.495 C 382.764 214.853,382.768 215.526,382.678 215.992 M384.174 228.064 C 384.284 230.122,384.438 231.876,384.516 231.961 C 384.757 232.226,384.602 228.552,384.279 226.380 C 384.059 224.892,384.029 225.359,384.174 228.064 M385.140 239.476 C 385.284 242.011,385.254 242.494,385.033 241.160 C 384.714 239.228,384.551 235.490,384.798 235.766 C 384.875 235.851,385.029 237.521,385.140 239.476 M385.678 246.298 C 385.595 246.971,385.525 246.511,385.523 245.276 C 385.521 244.041,385.589 243.491,385.674 244.053 C 385.760 244.615,385.761 245.626,385.678 246.298 M94.473 265.798 C 94.330 267.137,94.287 268.455,94.378 268.728 C 94.469 269.000,94.659 267.978,94.800 266.456 C 94.942 264.934,94.985 263.616,94.896 263.527 C 94.807 263.438,94.617 264.460,94.473 265.798 M388.511 276.649 C 388.655 279.367,388.628 279.826,388.415 278.262 C 388.251 277.059,388.027 274.365,387.916 272.275 C 387.771 269.557,387.798 269.098,388.011 270.662 C 388.175 271.865,388.400 274.560,388.511 276.649 M93.803 277.175 C 93.709 277.535,93.632 277.240,93.632 276.520 C 93.632 275.800,93.709 275.505,93.803 275.865 C 93.897 276.225,93.897 276.815,93.803 277.175 M389.045 284.097 C 388.962 284.766,388.894 284.219,388.894 282.881 C 388.894 281.543,388.962 280.996,389.045 281.665 C 389.128 282.334,389.128 283.428,389.045 284.097 M91.895 287.217 C 91.752 288.790,91.713 290.154,91.808 290.248 C 91.902 290.343,92.100 289.138,92.247 287.569 C 92.394 286.001,92.433 284.637,92.334 284.538 C 92.235 284.439,92.037 285.645,91.895 287.217 M390.167 294.481 C 390.276 296.848,390.428 298.854,390.505 298.940 C 390.742 299.203,390.582 294.799,390.267 292.423 C 390.062 290.875,390.031 291.513,390.167 294.481 M91.189 293.130 C 91.044 294.136,90.948 295.652,90.975 296.498 C 91.008 297.566,91.124 297.180,91.353 295.229 C 91.727 292.051,91.592 290.327,91.189 293.130 M90.334 308.385 C 90.183 310.102,89.983 311.282,89.890 311.008 C 89.678 310.384,90.182 304.837,90.428 305.083 C 90.528 305.183,90.485 306.669,90.334 308.385 M391.727 316.152 C 391.795 320.155,391.503 318.538,391.294 313.751 C 391.162 310.738,391.194 309.999,391.392 311.506 C 391.554 312.741,391.705 314.832,391.727 316.152 M88.580 317.680 C 88.433 318.812,88.334 320.496,88.360 321.422 C 88.394 322.641,88.496 322.280,88.733 320.112 C 89.109 316.661,88.980 314.598,88.580 317.680 M224.135 319.190 C 222.385 319.325,224.069 319.357,227.877 319.260 C 231.684 319.164,234.869 319.021,234.955 318.944 C 235.183 318.737,227.830 318.904,224.135 319.190 M212.909 319.802 C 207.154 320.118,189.794 321.886,190.415 322.093 C 190.668 322.178,193.349 321.984,196.373 321.664 C 199.397 321.343,204.144 320.898,206.922 320.676 C 218.554 319.744,221.315 319.341,212.909 319.802 M185.781 322.544 C 184.521 322.770,184.462 322.816,185.407 322.838 C 186.024 322.852,187.287 322.728,188.213 322.564 C 189.724 322.295,189.763 322.265,188.587 322.270 C 187.867 322.274,186.604 322.397,185.781 322.544 M181.104 323.293 C 179.841 323.559,179.835 323.569,180.917 323.573 C 181.534 323.576,182.544 323.450,183.162 323.293 C 184.715 322.898,182.981 322.898,181.104 323.293 M87.824 325.164 C 87.682 326.296,87.586 328.064,87.612 329.093 C 87.647 330.457,87.748 330.052,87.988 327.596 C 88.354 323.833,88.228 321.960,87.824 325.164 M392.614 325.538 C 392.601 326.670,392.716 329.027,392.870 330.776 C 393.140 333.855,393.149 333.879,393.158 331.525 C 393.163 330.187,393.048 327.830,392.902 326.286 C 392.661 323.733,392.635 323.666,392.614 325.538 M171.038 329.498 C 171.059 330.098,171.219 331.010,171.393 331.525 C 171.608 332.156,171.641 331.851,171.495 330.589 C 171.252 328.485,170.982 327.838,171.038 329.498 M273.047 334.420 C 272.961 334.988,272.888 334.612,272.885 333.583 C 272.883 332.554,272.953 332.088,273.042 332.549 C 273.131 333.009,273.133 333.851,273.047 334.420 M273.421 338.161 C 273.335 338.730,273.262 338.354,273.260 337.325 C 273.257 336.296,273.327 335.830,273.416 336.290 C 273.505 336.751,273.507 337.593,273.421 338.161 M48.478 355.423 C 47.872 355.553,51.306 355.659,56.109 355.659 C 60.913 355.659,64.186 355.543,63.385 355.400 C 61.588 355.081,49.989 355.099,48.478 355.423 M44.153 356.239 C 43.523 356.454,43.827 356.487,45.089 356.341 C 46.118 356.222,47.030 356.062,47.116 355.986 C 47.410 355.723,45.088 355.921,44.153 356.239 M66.417 356.221 C 67.035 356.378,67.961 356.510,68.475 356.513 L 69.411 356.520 68.475 356.221 C 67.961 356.056,67.035 355.924,66.417 355.928 L 65.295 355.935 66.417 356.221 M38.600 357.761 C 36.678 358.386,35.168 358.959,35.244 359.036 C 35.321 359.113,37.146 358.606,39.301 357.909 C 41.455 357.213,42.965 356.639,42.657 356.634 C 42.348 356.629,40.523 357.136,38.600 357.761 M72.217 357.371 C 76.553 358.470,76.910 358.544,76.653 358.287 C 76.353 357.987,70.732 356.594,69.972 356.631 C 69.663 356.647,70.674 356.979,72.217 357.371 M77.643 358.840 C 78.054 359.017,78.644 359.162,78.952 359.162 C 79.306 359.162,79.237 359.043,78.765 358.840 C 78.354 358.663,77.764 358.518,77.456 358.518 C 77.102 358.518,77.171 358.637,77.643 358.840 M32.835 359.930 C 32.064 360.290,31.306 360.715,31.151 360.874 C 30.842 361.193,33.280 360.230,34.328 359.620 C 35.386 359.004,34.364 359.216,32.835 359.930 M181.807 362.301 C 182.283 363.593,182.688 365.413,182.445 365.170 C 182.155 364.881,181.134 361.459,181.337 361.459 C 181.425 361.459,181.636 361.838,181.807 362.301 M183.671 368.943 C 183.671 369.297,183.552 369.228,183.349 368.756 C 183.172 368.344,183.027 367.755,183.027 367.446 C 183.027 367.092,183.146 367.162,183.349 367.633 C 183.526 368.045,183.671 368.634,183.671 368.943 M184.408 371.936 C 184.415 372.280,184.294 372.208,184.097 371.749 C 183.920 371.338,183.781 370.664,183.787 370.253 C 183.800 369.367,184.389 370.964,184.408 371.936 M185.568 376.957 C 185.605 378.504,185.364 378.035,185.101 376.052 C 184.953 374.928,184.989 374.617,185.210 375.117 C 185.392 375.529,185.553 376.356,185.568 376.957 M396.184 385.968 C 396.282 391.319,396.423 395.767,396.497 395.853 C 396.729 396.120,396.558 383.917,396.276 379.981 C 396.126 377.900,396.085 380.556,396.184 385.968 M186.529 389.125 C 186.529 393.948,186.636 397.400,186.766 396.796 C 187.085 395.310,187.098 384.140,186.782 382.039 C 186.643 381.113,186.529 384.302,186.529 389.125 M3.916 393.822 C 3.773 395.157,3.808 397.220,3.993 398.405 C 4.296 400.336,4.333 400.082,4.348 395.978 C 4.368 390.774,4.286 390.365,3.916 393.822 M250.889 392.142 C 248.712 392.532,251.019 392.547,253.508 392.159 C 255.284 391.883,255.303 391.868,253.882 391.871 C 253.059 391.873,251.712 391.995,250.889 392.142 M244.528 393.106 C 236.761 394.673,227.544 397.173,227.968 397.597 C 228.056 397.685,229.124 397.410,230.341 396.985 C 232.807 396.125,240.134 394.341,244.153 393.621 C 248.847 392.781,249.593 392.593,248.269 392.584 C 247.652 392.581,245.968 392.815,244.528 393.106 M184.838 403.203 C 183.745 406.487,183.548 406.112,184.586 402.724 C 185.037 401.250,185.463 400.202,185.531 400.395 C 185.600 400.588,185.288 401.852,184.838 403.203 M396.337 403.780 C 396.294 405.757,396.180 408.451,396.085 409.767 L 395.913 412.161 396.278 409.916 C 396.478 408.681,396.592 405.987,396.529 403.929 L 396.416 400.187 396.337 403.780 M207.036 415.524 C 206.694 416.242,206.348 416.762,206.266 416.681 C 206.095 416.510,207.231 414.219,207.487 414.219 C 207.581 414.219,207.379 414.806,207.036 415.524 M394.214 418.616 C 394.075 419.181,393.812 419.797,393.630 419.983 C 393.448 420.169,393.488 419.705,393.719 418.954 C 394.208 417.362,394.588 417.102,394.214 418.616 M205.256 420.177 C 204.820 420.884,204.228 424.630,203.952 428.438 C 203.675 432.269,203.666 432.297,203.612 429.560 C 203.537 425.832,204.568 419.832,205.283 419.832 C 205.386 419.832,205.374 419.987,205.256 420.177 M388.400 428.914 C 388.400 428.970,386.927 430.443,385.126 432.188 L 381.852 435.360 385.024 432.086 C 387.971 429.045,388.400 428.642,388.400 428.914 M159.681 430.637 C 157.022 432.131,156.120 432.781,157.355 432.315 C 158.359 431.935,162.395 429.566,162.395 429.355 C 162.395 429.109,162.432 429.092,159.681 430.637 M151.543 434.762 C 143.459 438.427,132.094 441.962,120.808 444.321 C 118.470 444.810,116.859 445.225,117.228 445.243 C 119.087 445.335,131.424 442.321,138.634 440.013 C 145.161 437.925,154.911 434.010,154.911 433.478 C 154.911 433.227,155.023 433.184,151.543 434.762 M205.275 438.266 C 205.471 438.613,205.421 438.623,205.077 438.305 C 204.825 438.073,204.552 437.147,204.471 436.247 L 204.324 434.612 204.669 436.208 C 204.859 437.086,205.132 438.012,205.275 438.266 M50.889 443.731 C 51.197 443.916,52.039 444.172,52.760 444.299 C 53.643 444.456,53.826 444.427,53.321 444.211 C 52.164 443.716,50.224 443.333,50.889 443.731 M55.005 444.902 C 55.519 445.067,56.277 445.201,56.688 445.201 C 57.281 445.201,57.242 445.139,56.501 444.902 C 55.987 444.737,55.229 444.602,54.818 444.602 C 54.225 444.602,54.264 444.665,55.005 444.902 M57.666 445.443 C 58.220 445.997,72.239 447.920,75.210 447.849 C 76.137 447.827,74.696 447.591,72.009 447.324 C 69.322 447.058,65.085 446.488,62.594 446.058 C 57.785 445.228,57.403 445.180,57.666 445.443 M110.196 446.074 C 107.727 446.465,103.181 447.027,100.094 447.323 C 94.622 447.848,94.587 447.857,98.713 447.670 C 103.652 447.446,115.846 445.892,116.339 445.424 C 116.622 445.156,114.749 445.354,110.196 446.074 M81.852 448.174 C 83.962 448.241,87.413 448.241,89.523 448.174 C 91.632 448.108,89.906 448.053,85.688 448.053 C 81.469 448.053,79.743 448.108,81.852 448.174 M216.651 458.198 C 216.651 458.797,223.621 464.264,225.789 465.366 C 227.421 466.195,226.977 465.830,223.669 463.622 C 222.075 462.559,219.844 460.841,218.711 459.806 C 217.578 458.770,216.651 458.047,216.651 458.198 M344.060 460.085 C 343.031 460.590,341.094 461.510,339.757 462.131 C 338.419 462.751,337.746 463.145,338.260 463.006 C 339.460 462.684,346.801 459.188,346.305 459.176 C 346.099 459.170,345.089 459.580,344.060 460.085 M332.836 464.784 C 330.796 465.611,330.034 466.120,331.523 465.661 C 332.899 465.237,335.514 464.039,335.080 464.032 C 334.874 464.029,333.864 464.367,332.836 464.784 M227.128 466.041 C 227.128 466.292,231.664 468.554,231.831 468.387 C 231.907 468.312,230.879 467.713,229.548 467.056 C 228.217 466.400,227.128 465.943,227.128 466.041 M327.445 466.656 C 326.334 467.060,324.061 467.794,322.394 468.287 C 320.727 468.780,319.638 469.193,319.973 469.204 C 320.595 469.224,326.394 467.487,329.093 466.472 C 329.916 466.162,330.337 465.911,330.028 465.915 C 329.719 465.918,328.557 466.252,327.445 466.656 M235.360 469.865 C 237.070 470.622,243.889 472.599,244.669 472.564 C 245.003 472.549,243.845 472.138,242.095 471.652 C 240.346 471.165,237.920 470.420,236.705 469.995 C 234.131 469.096,233.484 469.034,235.360 469.865 M315.061 470.148 C 313.106 470.623,310.833 471.195,310.009 471.418 L 308.513 471.824 310.009 471.619 C 311.990 471.347,318.820 469.705,319.090 469.435 C 319.404 469.121,318.960 469.200,315.061 470.148 M305.519 472.217 C 304.518 472.472,304.498 472.503,305.332 472.503 C 305.847 472.503,306.773 472.374,307.390 472.217 C 308.391 471.962,308.412 471.931,307.577 471.931 C 307.063 471.931,306.137 472.060,305.519 472.217 M245.510 472.761 C 245.803 473.056,253.872 474.476,254.956 474.423 C 255.395 474.402,254.032 474.085,251.929 473.719 C 249.826 473.353,247.469 472.934,246.691 472.789 C 245.913 472.643,245.381 472.631,245.510 472.761 M298.036 473.382 C 295.566 473.769,290.935 474.331,287.746 474.632 C 282.418 475.135,282.281 475.166,286.062 475.005 C 291.057 474.792,303.695 473.231,304.156 472.770 C 304.452 472.473,302.757 472.643,298.036 473.382 M257.811 474.836 C 259.949 475.148,264.414 475.314,264.141 475.072 C 264.055 474.996,262.133 474.844,259.869 474.735 C 257.064 474.600,256.409 474.632,257.811 474.836 M269.524 475.490 C 271.541 475.557,274.740 475.557,276.633 475.489 C 278.526 475.421,276.876 475.366,272.965 475.366 C 269.055 475.367,267.506 475.422,269.524 475.490 " stroke="none" fill="#090a0a" fill-rule="evenodd"></path><path id="path1" d="M201.310 19.859 C 165.763 23.120,152.619 34.647,142.246 71.656 C 134.120 100.647,119.606 182.039,110.586 249.205 C 104.530 294.302,99.454 344.001,98.292 369.576 C 98.038 375.171,97.742 379.839,97.633 379.947 C 97.524 380.056,94.765 379.137,91.500 377.905 C 58.501 365.448,43.452 365.841,26.845 379.593 C 12.539 391.438,16.022 408.578,35.377 421.589 C 60.221 438.289,108.353 438.807,145.557 422.773 C 175.892 409.698,179.782 394.630,163.893 351.731 C 154.688 326.877,155.341 319.029,167.072 313.541 C 177.329 308.742,214.397 304.935,251.637 304.855 C 284.814 304.784,288.982 313.637,286.658 379.233 C 286.002 397.777,285.825 402.025,285.693 402.465 C 285.619 402.712,283.165 403.048,279.455 403.320 C 249.512 405.511,235.599 408.054,226.883 412.928 C 209.993 422.373,216.015 446.913,237.428 455.894 C 246.890 459.863,255.889 461.370,271.282 461.564 C 312.263 462.083,348.935 448.431,376.094 422.546 C 383.995 415.016,384.472 406.975,380.528 347.802 C 374.726 260.760,366.104 177.038,358.621 135.080 C 343.524 50.432,319.518 26.947,241.347 20.349 C 233.377 19.677,206.839 19.352,201.310 19.859 M259.788 76.474 C 276.989 78.141,282.261 79.102,288.827 81.770 C 306.977 89.144,317.096 110.662,309.542 125.820 C 306.213 132.499,297.120 138.515,283.625 142.963 C 236.264 158.576,188.619 151.572,173.992 126.848 C 168.623 117.772,168.061 102.082,172.760 92.445 C 178.105 81.485,189.405 77.071,215.341 75.814 C 222.546 75.465,254.228 75.936,259.788 76.474 M213.377 89.313 C 213.737 89.407,214.326 89.407,214.687 89.313 C 215.047 89.219,214.752 89.142,214.032 89.142 C 213.312 89.142,213.017 89.219,213.377 89.313 M253.446 93.569 C 250.219 95.166,250.016 98.170,253.033 99.651 C 255.196 100.712,271.572 103.283,276.078 103.269 C 280.054 103.256,282.921 99.231,280.543 97.003 C 277.610 94.256,257.267 91.678,253.446 93.569 " stroke="none" fill="#dcecfb" fill-rule="evenodd"></path><path id="path2" d="M323.667 48.386 C 323.667 48.451,324.214 48.998,324.883 49.603 L 326.099 50.702 325.000 49.486 C 323.976 48.352,323.667 48.097,323.667 48.386 M218.097 88.857 C 217.973 88.981,215.450 89.170,212.490 89.278 C 209.531 89.385,206.520 89.543,205.800 89.630 C 205.080 89.716,203.648 89.877,202.619 89.987 C 201.590 90.097,200.572 90.213,200.356 90.245 C 199.603 90.356,201.326 101.259,202.833 105.921 C 207.700 120.982,219.337 126.486,246.586 126.614 C 255.345 126.655,271.073 126.239,272.734 125.922 C 273.067 125.858,276.623 125.692,280.636 125.553 C 291.451 125.178,293.358 124.976,293.358 124.203 C 293.358 124.011,293.602 123.854,293.901 123.854 C 294.199 123.854,294.578 123.640,294.743 123.377 C 294.907 123.115,295.505 122.606,296.071 122.246 C 296.637 121.886,297.100 121.357,297.100 121.070 C 297.100 120.783,297.278 120.490,297.495 120.417 C 297.712 120.345,297.938 120.036,297.998 119.731 C 298.058 119.426,298.286 118.744,298.505 118.214 C 299.030 116.942,298.814 110.910,298.219 110.192 C 297.965 109.886,297.866 109.635,297.999 109.635 C 298.133 109.635,297.982 109.132,297.663 108.517 C 297.345 107.901,297.097 107.270,297.113 107.113 C 297.163 106.592,295.480 103.274,295.165 103.274 C 294.995 103.274,294.855 103.099,294.855 102.884 C 294.855 102.431,294.637 102.163,291.816 99.156 C 290.659 97.922,289.522 96.913,289.290 96.913 C 289.058 96.913,288.868 96.745,288.868 96.539 C 288.868 96.333,288.616 96.165,288.307 96.165 C 287.998 96.165,287.746 95.986,287.746 95.768 C 287.746 95.550,287.577 95.476,287.371 95.603 C 287.166 95.731,286.997 95.646,286.997 95.416 C 286.997 95.186,286.843 95.093,286.655 95.209 C 286.467 95.326,286.256 95.264,286.187 95.072 C 286.118 94.881,285.809 94.669,285.500 94.602 C 285.192 94.536,284.848 94.359,284.736 94.210 C 284.624 94.060,284.203 93.887,283.800 93.825 C 283.398 93.762,282.858 93.579,282.601 93.419 C 282.343 93.258,282.133 93.225,282.133 93.346 C 282.133 93.466,281.649 93.314,281.058 93.009 C 280.466 92.703,279.881 92.554,279.757 92.678 C 279.633 92.802,279.317 92.729,279.055 92.515 C 278.793 92.301,277.989 92.043,277.268 91.940 C 276.548 91.838,275.706 91.661,275.398 91.547 C 274.799 91.325,271.687 90.914,269.224 90.730 C 268.400 90.669,266.969 90.506,266.043 90.369 C 265.117 90.231,263.517 90.061,262.488 89.991 C 261.459 89.920,259.775 89.759,258.746 89.632 C 253.667 89.006,218.616 88.338,218.097 88.857 M264.920 93.337 C 278.458 94.603,283.277 96.988,280.531 101.062 C 278.850 103.557,276.042 103.757,265.482 102.131 C 262.806 101.719,259.944 101.319,259.121 101.241 C 258.297 101.163,257.371 101.021,257.063 100.925 C 256.754 100.829,255.540 100.470,254.366 100.127 C 251.183 99.198,250.234 97.824,251.269 95.643 C 252.299 93.472,258.867 91.677,261.553 92.833 C 261.862 92.966,263.377 93.192,264.920 93.337 M173.353 389.710 C 173.356 390.739,173.429 391.116,173.515 390.547 C 173.601 389.978,173.598 389.136,173.509 388.676 C 173.421 388.216,173.350 388.681,173.353 389.710 M382.895 394.949 C 382.897 395.978,382.970 396.354,383.056 395.785 C 383.142 395.217,383.140 394.375,383.051 393.914 C 382.962 393.454,382.892 393.920,382.895 394.949 M382.890 401.497 C 382.890 402.423,382.963 402.802,383.052 402.339 C 383.141 401.876,383.141 401.118,383.052 400.655 C 382.963 400.192,382.890 400.571,382.890 401.497 " stroke="none" fill="#a4cbd4" fill-rule="evenodd"></path><path id="path3" d="M226.473 88.575 C 227.039 88.661,227.965 88.661,228.531 88.575 C 229.097 88.489,228.634 88.419,227.502 88.419 C 226.370 88.419,225.907 88.489,226.473 88.575 M238.073 88.575 C 238.639 88.661,239.565 88.661,240.131 88.575 C 240.697 88.489,240.234 88.419,239.102 88.419 C 237.970 88.419,237.507 88.489,238.073 88.575 M208.793 116.932 C 209.491 117.652,210.147 118.241,210.250 118.241 C 210.353 118.241,209.866 117.652,209.167 116.932 C 208.469 116.211,207.814 115.622,207.711 115.622 C 207.608 115.622,208.095 116.211,208.793 116.932 M282.226 125.609 C 282.587 125.703,283.176 125.703,283.536 125.609 C 283.896 125.515,283.601 125.438,282.881 125.438 C 282.161 125.438,281.866 125.515,282.226 125.609 M274.934 125.990 C 275.400 126.079,276.073 126.076,276.431 125.982 C 276.789 125.888,276.408 125.815,275.585 125.819 C 274.761 125.823,274.469 125.900,274.934 125.990 M259.219 126.738 C 259.684 126.827,260.358 126.824,260.715 126.730 C 261.073 126.637,260.692 126.564,259.869 126.568 C 259.046 126.572,258.753 126.648,259.219 126.738 M382.874 391.768 C 382.874 392.488,382.951 392.783,383.046 392.423 C 383.140 392.063,383.140 391.473,383.046 391.113 C 382.951 390.753,382.874 391.048,382.874 391.768 " stroke="none" fill="#8aa0a9" fill-rule="evenodd"></path><path id="path4" d="M182.729 107.203 C 182.730 108.849,182.796 109.476,182.875 108.596 C 182.954 107.716,182.953 106.369,182.873 105.603 C 182.792 104.837,182.727 105.557,182.729 107.203 M188.400 124.228 C 189.414 125.257,190.327 126.099,190.430 126.099 C 190.533 126.099,189.788 125.257,188.775 124.228 C 187.761 123.199,186.848 122.357,186.745 122.357 C 186.642 122.357,187.387 123.199,188.400 124.228 M284.663 125.615 C 285.128 125.705,285.802 125.702,286.160 125.608 C 286.517 125.514,286.137 125.441,285.313 125.445 C 284.490 125.449,284.197 125.526,284.663 125.615 M268.947 126.364 C 269.413 126.453,270.086 126.450,270.444 126.356 C 270.802 126.263,270.421 126.189,269.598 126.194 C 268.775 126.198,268.482 126.274,268.947 126.364 M261.646 126.731 C 262.007 126.825,262.596 126.825,262.956 126.731 C 263.316 126.637,263.022 126.560,262.301 126.560 C 261.581 126.560,261.286 126.637,261.646 126.731 M245.370 127.126 C 247.067 127.195,249.846 127.195,251.543 127.126 C 253.241 127.057,251.852 127.000,248.457 127.000 C 245.061 127.000,243.672 127.057,245.370 127.126 M232.103 137.977 C 233.708 138.048,236.233 138.047,237.716 137.976 C 239.199 137.905,237.886 137.848,234.799 137.848 C 231.712 137.849,230.499 137.907,232.103 137.977 M84.659 434.693 C 85.225 434.778,86.151 434.778,86.717 434.693 C 87.283 434.607,86.819 434.537,85.688 434.537 C 84.556 434.537,84.093 434.607,84.659 434.693 " stroke="none" fill="#647c84" fill-rule="evenodd"></path><path id="path5" d="M159.939 34.892 L 158.840 36.109 160.056 35.010 C 161.190 33.985,161.444 33.676,161.155 33.676 C 161.091 33.676,160.543 34.224,159.939 34.892 M222.732 75.843 C 223.092 75.937,223.681 75.937,224.041 75.843 C 224.401 75.748,224.107 75.671,223.386 75.671 C 222.666 75.671,222.371 75.748,222.732 75.843 M242.563 75.843 C 242.923 75.937,243.513 75.937,243.873 75.843 C 244.233 75.748,243.938 75.671,243.218 75.671 C 242.498 75.671,242.203 75.748,242.563 75.843 M212.629 76.217 C 212.989 76.311,213.578 76.311,213.938 76.217 C 214.298 76.123,214.004 76.046,213.283 76.046 C 212.563 76.046,212.268 76.123,212.629 76.217 M222.551 88.578 C 223.224 88.661,224.234 88.660,224.796 88.574 C 225.358 88.489,224.808 88.421,223.573 88.423 C 222.339 88.425,221.879 88.495,222.551 88.578 M243.312 88.565 C 243.672 88.659,244.261 88.659,244.621 88.565 C 244.981 88.471,244.687 88.394,243.966 88.394 C 243.246 88.394,242.951 88.471,243.312 88.565 M198.874 90.546 C 199.015 90.775,198.668 90.828,197.961 90.687 C 197.221 90.539,196.819 90.609,196.819 90.886 C 196.819 91.163,196.468 91.226,195.828 91.066 C 195.176 90.902,194.920 90.952,195.080 91.211 C 195.232 91.456,195.042 91.531,194.575 91.409 C 194.163 91.301,193.826 91.385,193.826 91.596 C 193.826 91.806,193.489 91.891,193.078 91.783 C 192.643 91.669,192.329 91.771,192.329 92.027 C 192.329 92.269,192.161 92.363,191.955 92.236 C 191.749 92.109,191.581 92.178,191.581 92.389 C 191.581 92.600,191.328 92.677,191.020 92.558 C 190.711 92.440,190.458 92.539,190.458 92.779 C 190.458 93.019,190.290 93.111,190.084 92.984 C 189.878 92.857,189.710 92.941,189.710 93.171 C 189.710 93.401,189.552 93.492,189.359 93.372 C 189.166 93.253,188.834 93.454,188.622 93.818 C 188.410 94.183,188.231 94.347,188.225 94.184 C 188.213 93.887,185.357 96.750,185.194 97.223 C 185.146 97.361,184.854 97.659,184.545 97.885 C 184.236 98.111,184.103 98.490,184.249 98.727 C 184.396 98.964,184.343 99.158,184.131 99.158 C 183.920 99.158,183.854 99.438,183.986 99.781 C 184.155 100.223,184.086 100.318,183.747 100.108 C 183.393 99.889,183.334 100.019,183.521 100.608 C 183.681 101.111,183.612 101.403,183.334 101.403 C 183.047 101.403,182.978 101.741,183.136 102.370 C 183.270 102.902,183.246 103.255,183.083 103.155 C 182.921 103.054,182.784 105.051,182.779 107.592 C 182.774 110.132,182.908 112.010,183.076 111.765 C 183.244 111.519,183.291 111.948,183.180 112.722 C 183.061 113.553,183.134 114.125,183.358 114.125 C 183.576 114.125,183.637 114.524,183.503 115.061 C 183.352 115.661,183.425 115.996,183.708 115.996 C 183.977 115.996,184.056 116.286,183.910 116.745 C 183.777 117.164,183.843 117.493,184.060 117.493 C 184.274 117.493,184.351 117.746,184.233 118.054 C 184.114 118.363,184.214 118.616,184.454 118.616 C 184.693 118.616,184.786 118.784,184.659 118.990 C 184.531 119.196,184.616 119.364,184.846 119.364 C 185.076 119.364,185.160 119.532,185.033 119.738 C 184.906 119.944,184.990 120.112,185.220 120.112 C 185.450 120.112,185.541 120.270,185.421 120.463 C 185.302 120.657,185.475 120.966,185.807 121.152 C 186.138 121.337,186.415 121.580,186.422 121.692 C 186.429 121.803,187.628 123.135,189.087 124.652 C 190.545 126.168,191.606 127.156,191.445 126.848 C 191.284 126.539,191.585 126.791,192.113 127.409 C 192.642 128.026,193.075 128.373,193.076 128.179 C 193.077 127.986,193.325 128.154,193.627 128.553 C 193.929 128.953,194.182 129.121,194.188 128.928 C 194.195 128.734,194.465 128.902,194.789 129.302 C 195.113 129.701,195.269 129.775,195.136 129.467 C 194.974 129.092,195.070 129.121,195.426 129.555 C 195.718 129.911,196.068 130.094,196.202 129.960 C 196.336 129.826,196.445 129.923,196.445 130.175 C 196.445 130.427,196.614 130.529,196.819 130.402 C 197.025 130.275,197.194 130.345,197.194 130.558 C 197.194 131.075,199.364 132.176,199.824 131.892 C 200.024 131.769,200.187 131.856,200.187 132.086 C 200.187 132.316,200.355 132.400,200.561 132.273 C 200.767 132.146,200.935 132.230,200.935 132.460 C 200.935 132.690,201.104 132.775,201.310 132.647 C 201.515 132.520,201.684 132.612,201.684 132.852 C 201.684 133.093,201.944 133.189,202.265 133.066 C 202.644 132.920,202.752 132.993,202.577 133.276 C 202.398 133.566,202.516 133.631,202.932 133.471 C 203.275 133.339,203.555 133.413,203.555 133.635 C 203.555 133.856,203.807 133.940,204.116 133.822 C 204.425 133.703,204.677 133.764,204.677 133.957 C 204.677 134.150,204.930 134.211,205.239 134.092 C 205.547 133.974,205.800 134.081,205.800 134.331 C 205.800 134.581,206.052 134.689,206.361 134.570 C 206.670 134.452,206.922 134.529,206.922 134.742 C 206.922 134.967,207.256 135.024,207.718 134.878 C 208.303 134.692,208.436 134.750,208.220 135.098 C 208.007 135.443,208.147 135.514,208.735 135.361 C 209.179 135.245,209.542 135.320,209.542 135.529 C 209.542 135.751,209.945 135.808,210.508 135.666 C 211.203 135.492,211.398 135.549,211.201 135.867 C 211.003 136.187,211.203 136.242,211.918 136.062 C 212.558 135.902,212.909 135.965,212.909 136.242 C 212.909 136.519,213.310 136.590,214.050 136.442 C 214.845 136.283,215.113 136.341,214.932 136.634 C 214.748 136.932,215.069 136.980,216.036 136.798 C 216.975 136.622,217.399 136.679,217.399 136.981 C 217.399 137.284,217.865 137.346,218.896 137.181 C 219.880 137.024,220.393 137.083,220.393 137.353 C 220.393 137.625,220.895 137.680,221.876 137.514 C 222.692 137.376,223.576 137.401,223.840 137.569 C 224.422 137.938,244.715 137.995,244.715 137.628 C 244.715 137.486,245.653 137.447,246.800 137.542 C 248.219 137.659,248.806 137.587,248.638 137.315 C 248.468 137.040,248.985 136.995,250.295 137.168 C 251.646 137.348,252.198 137.294,252.198 136.982 C 252.198 136.679,252.622 136.622,253.562 136.798 C 254.498 136.974,254.848 136.927,254.676 136.650 C 254.507 136.376,254.851 136.315,255.745 136.460 C 256.587 136.597,257.063 136.525,257.063 136.260 C 257.063 135.996,257.488 135.932,258.243 136.083 C 259.079 136.250,259.347 136.194,259.160 135.892 C 258.973 135.589,259.245 135.535,260.096 135.705 C 261.008 135.887,261.225 135.832,261.003 135.472 C 260.779 135.110,260.995 135.062,261.927 135.267 C 262.737 135.445,263.063 135.403,262.902 135.143 C 262.749 134.896,263.008 134.815,263.603 134.923 C 264.122 135.017,264.546 134.938,264.546 134.748 C 264.546 134.557,264.883 134.489,265.295 134.597 C 265.732 134.711,266.043 134.608,266.043 134.350 C 266.043 134.077,266.331 133.998,266.791 134.144 C 267.203 134.275,267.540 134.218,267.540 134.017 C 267.540 133.817,267.877 133.741,268.288 133.849 C 268.725 133.963,269.036 133.860,269.036 133.601 C 269.036 133.320,269.327 133.250,269.832 133.411 C 270.403 133.592,270.548 133.535,270.346 133.209 C 270.144 132.882,270.290 132.825,270.861 133.007 C 271.352 133.163,271.656 133.097,271.656 132.834 C 271.656 132.586,271.954 132.504,272.373 132.637 C 272.767 132.762,273.199 132.687,273.334 132.469 C 273.468 132.252,273.735 132.171,273.927 132.289 C 274.118 132.408,274.275 132.315,274.275 132.083 C 274.275 131.832,274.577 131.757,275.023 131.899 C 275.443 132.032,275.772 131.966,275.772 131.749 C 275.772 131.536,276.024 131.458,276.333 131.577 C 276.642 131.695,276.894 131.611,276.894 131.389 C 276.894 131.168,277.147 131.084,277.456 131.202 C 277.765 131.321,278.017 131.214,278.017 130.964 C 278.017 130.713,278.269 130.606,278.578 130.725 C 278.887 130.843,279.139 130.782,279.139 130.589 C 279.139 130.396,279.392 130.336,279.701 130.454 C 280.010 130.573,280.262 130.465,280.262 130.215 C 280.262 129.965,280.514 129.858,280.823 129.976 C 281.132 130.095,281.384 130.034,281.384 129.841 C 281.384 129.648,281.637 129.587,281.946 129.706 C 282.254 129.824,282.507 129.740,282.507 129.519 C 282.507 129.297,282.760 129.213,283.068 129.331 C 283.377 129.450,283.630 129.351,283.630 129.111 C 283.630 128.871,283.798 128.778,284.004 128.906 C 284.210 129.033,284.378 128.964,284.378 128.752 C 284.378 128.541,284.630 128.465,284.939 128.583 C 285.248 128.702,285.500 128.602,285.500 128.362 C 285.500 128.122,285.669 128.030,285.875 128.157 C 286.080 128.284,286.249 128.215,286.249 128.004 C 286.249 127.792,286.529 127.727,286.871 127.858 C 287.262 128.008,287.402 127.949,287.248 127.699 C 286.970 127.250,288.003 126.731,288.528 127.055 C 288.715 127.171,288.868 127.078,288.868 126.848 C 288.868 126.617,289.019 126.522,289.203 126.636 C 289.387 126.750,289.641 126.574,289.768 126.245 C 289.896 125.911,290.238 125.740,290.543 125.857 C 290.843 125.972,291.200 125.887,291.336 125.668 C 291.594 125.250,291.428 125.256,270.907 126.295 C 248.003 127.455,239.339 127.373,229.785 125.905 C 209.970 122.861,202.081 114.079,199.960 92.703 C 199.780 90.888,199.560 90.178,199.178 90.178 C 198.885 90.178,198.749 90.344,198.874 90.546 M187.091 123.223 C 187.091 123.287,187.638 123.834,188.307 124.439 L 189.523 125.538 188.424 124.322 C 187.399 123.188,187.091 122.934,187.091 123.223 M231.338 151.063 C 231.904 151.149,232.830 151.149,233.396 151.063 C 233.962 150.977,233.499 150.907,232.367 150.907 C 231.235 150.907,230.772 150.977,231.338 151.063 M236.022 151.066 C 236.694 151.150,237.704 151.148,238.267 151.062 C 238.829 150.977,238.279 150.909,237.044 150.911 C 235.809 150.913,235.349 150.983,236.022 151.066 M239.575 305.226 C 240.144 305.312,240.986 305.310,241.446 305.221 C 241.906 305.132,241.441 305.062,240.412 305.065 C 239.383 305.068,239.006 305.140,239.575 305.226 M286.710 368.943 C 286.710 369.663,286.787 369.958,286.881 369.598 C 286.975 369.238,286.975 368.648,286.881 368.288 C 286.787 367.928,286.710 368.223,286.710 368.943 M382.895 388.587 C 382.897 389.616,382.970 389.993,383.056 389.424 C 383.142 388.855,383.140 388.014,383.051 387.553 C 382.962 387.093,382.892 387.558,382.895 388.587 M285.595 399.813 C 285.599 400.636,285.676 400.929,285.765 400.463 C 285.855 399.998,285.851 399.324,285.758 398.967 C 285.664 398.609,285.591 398.990,285.595 399.813 M382.874 405.613 C 382.874 406.333,382.951 406.628,383.046 406.268 C 383.140 405.907,383.140 405.318,383.046 404.958 C 382.951 404.598,382.874 404.892,382.874 405.613 M81.108 434.689 C 81.574 434.779,82.247 434.775,82.605 434.682 C 82.963 434.588,82.582 434.515,81.759 434.519 C 80.935 434.523,80.643 434.600,81.108 434.689 M88.775 434.683 C 89.135 434.777,89.724 434.777,90.084 434.683 C 90.444 434.589,90.150 434.512,89.429 434.512 C 88.709 434.512,88.414 434.589,88.775 434.683 M276.805 462.005 C 277.271 462.094,277.944 462.091,278.302 461.997 C 278.660 461.903,278.279 461.830,277.456 461.834 C 276.632 461.838,276.340 461.915,276.805 462.005 " stroke="none" fill="#6c747c" fill-rule="evenodd"></path><path id="path6" d="M213.938 19.360 C 215.225 19.433,217.329 19.433,218.616 19.360 C 219.902 19.287,218.849 19.227,216.277 19.227 C 213.704 19.227,212.652 19.287,213.938 19.360 M231.351 88.584 C 232.542 88.658,234.394 88.658,235.467 88.582 C 236.540 88.507,235.566 88.446,233.302 88.447 C 231.038 88.448,230.160 88.509,231.351 88.584 M256.782 126.731 C 257.142 126.825,257.732 126.825,258.092 126.731 C 258.452 126.637,258.157 126.560,257.437 126.560 C 256.717 126.560,256.422 126.637,256.782 126.731 M251.543 304.859 C 252.521 304.936,254.121 304.936,255.098 304.859 C 256.076 304.782,255.276 304.719,253.321 304.719 C 251.366 304.719,250.566 304.782,251.543 304.859 " stroke="none" fill="#a4b4bf" fill-rule="evenodd"></path><path id="path7" d="" stroke="none" fill="#acbdc4" fill-rule="evenodd"></path><path id="path8" d="M221.800 19.348 C 222.266 19.437,222.939 19.434,223.297 19.340 C 223.655 19.247,223.274 19.173,222.451 19.178 C 221.628 19.182,221.335 19.258,221.800 19.348 M271.001 462.015 C 271.978 462.092,273.578 462.092,274.556 462.015 C 275.533 461.938,274.733 461.875,272.778 461.875 C 270.823 461.875,270.023 461.938,271.001 462.015 " stroke="none" fill="#6c7c7c" fill-rule="evenodd"></path></g></svg>